<svg width="55" height="48" viewBox="0 0 55 48" fill="none" xmlns="http://www.w3.org/2000/svg">
<g clip-path="url(#clip0_137_2)">
<path d="M42 48H28V35H20V48H6V27C6 26.7348 6.10536 26.4804 6.29289 26.2929C6.48043 26.1054 6.73478 26 7 26C7.26522 26 7.51957 26.1054 7.70711 26.2929C7.89464 26.4804 8 26.7348 8 27V46H18V33H30V46H40V28C40 27.7348 40.1054 27.4804 40.2929 27.2929C40.4804 27.1054 40.7348 27 41 27C41.2652 27 41.5196 27.1054 41.7071 27.2929C41.8946 27.4804 42 27.7348 42 28V48Z" fill="black"/>
<path d="M47 27C46.7426 27.0003 46.4949 26.9011 46.309 26.723L24 5.384L1.69101 26.723C1.49939 26.9064 1.24277 27.0062 0.977589 27.0003C0.712413 26.9945 0.460407 26.8836 0.27701 26.692C0.0936125 26.5004 -0.00615291 26.2438 -0.000339282 25.9786C0.00547435 25.7134 0.116391 25.4614 0.30801 25.278L24 2.616L47.691 25.277C47.8354 25.415 47.9352 25.593 47.9775 25.7882C48.0198 25.9835 48.0027 26.1868 47.9283 26.3722C47.854 26.5576 47.7258 26.7165 47.5604 26.8284C47.3949 26.9402 47.1997 27 47 27ZM39 15C38.7348 15 38.4804 14.8946 38.2929 14.7071C38.1054 14.5196 38 14.2652 38 14V8H32C31.7348 8 31.4804 7.89464 31.2929 7.7071C31.1054 7.51957 31 7.26521 31 7C31 6.73478 31.1054 6.48043 31.2929 6.29289C31.4804 6.10535 31.7348 6 32 6H40V14C40 14.2652 39.8947 14.5196 39.7071 14.7071C39.5196 14.8946 39.2652 15 39 15Z" fill="black"/>
</g>
<defs>
<clipPath id="clip0_137_2">
<rect width="55" height="48" fill="white"/>
</clipPath>
</defs>
</svg>
