<svg width="22" height="22" viewBox="0 0 22 22" fill="none" xmlns="http://www.w3.org/2000/svg">
<path d="M16.02 0.5H5.98C2.95348 0.5 0.5 2.95348 0.5 5.98V16.02C0.5 19.0465 2.95348 21.5 5.98 21.5H16.02C19.0465 21.5 21.5 19.0465 21.5 16.02V5.98C21.5 2.95348 19.0465 0.5 16.02 0.5Z" stroke="black" stroke-linecap="round" stroke-linejoin="round"/>
<path d="M11 16.5C14.0376 16.5 16.5 14.0376 16.5 11C16.5 7.96243 14.0376 5.5 11 5.5C7.96243 5.5 5.5 7.96243 5.5 11C5.5 14.0376 7.96243 16.5 11 16.5Z" stroke="black" stroke-linecap="round" stroke-linejoin="round"/>
<path d="M17 4.5C17.2761 4.5 17.5 4.27614 17.5 4C17.5 3.72386 17.2761 3.5 17 3.5C16.7239 3.5 16.5 3.72386 16.5 4C16.5 4.27614 16.7239 4.5 17 4.5Z" stroke="black" stroke-linecap="round" stroke-linejoin="round"/>
</svg>
