<svg width="20" height="20" viewBox="0 0 20 20" fill="none" xmlns="http://www.w3.org/2000/svg">
<path d="M12.8477 11.0674L10.5 9.71094V5C10.5 4.72388 10.2761 4.5 10 4.5C9.72388 4.5 9.5 4.72388 9.5 5V10C9.50006 10.1785 9.59534 10.3434 9.75 10.4326L12.3477 11.9326C12.4236 11.9768 12.5098 12.0001 12.5977 12C12.776 11.9999 12.9407 11.9048 13.03 11.7504C13.1683 11.5115 13.0867 11.2056 12.8477 11.0674ZM10 0C4.47717 0 0 4.47717 0 10C0 15.5228 4.47717 20 10 20C15.5201 19.9935 19.9935 15.5201 20 10C20 4.47717 15.5228 0 10 0ZM10 19C5.02942 19 1 14.9706 1 10C1 5.02942 5.02942 1 10 1C14.9683 1.00543 18.9946 5.03168 19 10C19 14.9706 14.9706 19 10 19Z" fill="black"/>
</svg>
